<svg width="31" height="16" viewBox="0 0 31 16" fill="none" xmlns="http://www.w3.org/2000/svg">
<path d="M30.8713 10.7412C30.9312 10.8541 30.9701 10.9787 30.9858 11.108C31.0014 11.2372 30.9936 11.3686 30.9626 11.4945C30.9317 11.6204 30.8782 11.7385 30.8054 11.8419C30.7325 11.9454 30.6416 12.0322 30.538 12.0973C30.4343 12.1625 30.3198 12.2048 30.2011 12.2218C30.0824 12.2388 29.9618 12.2302 29.8462 12.1964C29.7306 12.1626 29.6222 12.1044 29.5273 12.025C29.4323 11.9456 29.3527 11.8466 29.2929 11.7336L26.3382 6.16052C24.5729 7.49444 22.6078 8.48354 20.531 9.08355L21.4624 14.8351C21.5043 15.0943 21.45 15.3611 21.3114 15.5767C21.1728 15.7923 20.9612 15.9391 20.7232 15.9848C20.6706 15.9949 20.6173 15.9999 20.5639 16C20.3498 15.9997 20.1427 15.9173 19.9788 15.7673C19.8148 15.6174 19.7046 15.4094 19.6674 15.1798L18.7474 9.4977C16.5971 9.87469 14.4052 9.87393 12.2551 9.49544L11.3352 15.1777C11.298 15.4073 11.1878 15.6153 11.0239 15.7653C10.8599 15.9152 10.6528 15.9976 10.4387 15.9979C10.3853 15.9979 10.332 15.9928 10.2794 15.9827C10.0414 15.937 9.82984 15.7902 9.69122 15.5746C9.55259 15.359 9.49828 15.0922 9.54023 14.833L10.4717 9.07977C8.3972 8.4786 6.4345 7.48911 4.67134 6.15553L1.70023 11.7598C1.57932 11.9876 1.38029 12.1537 1.14691 12.2218C0.913524 12.2898 0.664883 12.2541 0.455649 12.1226C0.246415 11.991 0.0937148 11.7744 0.0311189 11.5203C-0.0314769 11.2661 0.00115532 10.9953 0.121842 10.7674L3.21042 4.94161C2.11677 3.94145 1.11492 2.82795 0.218989 1.61681C0.067419 1.41205 -0.00331416 1.15014 0.0223303 0.888627C0.0479748 0.627111 0.167899 0.387377 0.355756 0.222096C0.543612 0.056814 0.784035 -0.0204952 1.0242 0.00715383C1.26437 0.0348028 1.48463 0.165148 1.6366 0.369552C2.60054 1.67567 3.70051 2.85546 4.91439 3.8852C4.93286 3.89926 4.9503 3.91427 4.96753 3.92962C7.98123 6.47368 11.6951 7.83566 15.508 7.79511C19.3201 7.83563 23.0332 6.47421 26.0465 3.93114C26.0625 3.91717 26.0786 3.90328 26.0956 3.89036C27.3118 2.85942 28.4139 1.67787 29.3794 0.369541C29.4545 0.268016 29.5473 0.183618 29.6524 0.121172C29.7575 0.0587262 29.8729 0.0194579 29.992 0.00561056C30.1111 -0.00823675 30.2315 0.00360915 30.3463 0.0404712C30.4612 0.0773332 30.5683 0.138488 30.6614 0.22044C30.7546 0.302392 30.832 0.403534 30.8892 0.518082C30.9464 0.632631 30.9824 0.75834 30.9949 0.888023C31.0075 1.01771 30.9965 1.14882 30.9626 1.27387C30.9286 1.39892 30.8723 1.51545 30.797 1.6168C29.8994 2.8302 28.8955 3.94556 27.7994 4.9471L30.8713 10.7412Z" fill="#FF655B"/>
</svg>
