<svg width="37" height="37" viewBox="0 0 37 37" fill="none" xmlns="http://www.w3.org/2000/svg">
<path fill-rule="evenodd" clip-rule="evenodd" d="M20.001 2C20.001 0.895431 19.1056 3.84171e-08 18.001 0C16.8965 -3.84171e-08 16.001 0.89543 16.001 2V16.001H2C0.89543 16.001 0 16.8965 0 18.001C0 19.1056 0.89543 20.001 2 20.001H16.001V34.0022C16.001 35.1068 16.8965 36.0022 18.001 36.0022C19.1056 36.0022 20.001 35.1068 20.001 34.0022V20.001H34.0021C35.1066 20.001 36.0021 19.1056 36.0021 18.001C36.0021 16.8965 35.1066 16.001 34.0021 16.001H20.001V2Z" fill="#3C6A76"/>
</svg>
