<svg width="202" height="26" viewBox="0 0 202 26" fill="none" xmlns="http://www.w3.org/2000/svg">
<rect x="22.8715" y="6.99023" width="2.20131" height="11.3818" rx="1.10065" fill="#649DAD"/>
<rect x="58.0927" y="4.71387" width="2.20131" height="15.9345" rx="1.10065" fill="#649DAD"/>
<rect x="93.3138" y="6.99023" width="2.20131" height="11.3818" rx="1.10065" fill="#649DAD"/>
<rect x="128.535" y="4.71387" width="2.20131" height="15.9345" rx="1.10065" fill="#649DAD"/>
<rect x="163.755" y="4.71387" width="2.20131" height="15.9345" rx="1.10065" fill="#649DAD"/>
<rect x="198.977" y="6.99023" width="2.20131" height="11.3818" rx="1.10065" fill="#649DAD"/>
<rect x="27.2746" y="2.43652" width="2.20131" height="20.4872" rx="1.10065" fill="#649DAD"/>
<rect x="62.4955" y="9.26562" width="2.20131" height="6.82906" rx="1.10065" fill="#649DAD"/>
<rect x="97.7159" y="2.43652" width="2.20131" height="20.4872" rx="1.10065" fill="#649DAD"/>
<rect x="132.937" y="9.26562" width="2.20131" height="6.82906" rx="1.10065" fill="#649DAD"/>
<rect x="168.158" y="2.43652" width="2.20131" height="20.4872" rx="1.10065" fill="#649DAD"/>
<rect x="31.6767" y="9.26562" width="2.20131" height="6.82906" rx="1.10065" fill="#649DAD"/>
<rect x="66.8981" y="6.99023" width="2.20131" height="11.3818" rx="1.10065" fill="#649DAD"/>
<rect x="102.119" y="6.99023" width="2.20131" height="11.3818" rx="1.10065" fill="#649DAD"/>
<rect x="137.34" y="6.99023" width="2.20131" height="11.3818" rx="1.10065" fill="#649DAD"/>
<rect x="172.561" y="9.26562" width="2.20131" height="6.82906" rx="1.10065" fill="#649DAD"/>
<rect x="0.858826" y="4.71387" width="2.20131" height="15.9345" rx="1.10065" fill="#649DAD"/>
<rect x="36.0798" y="9.26562" width="2.20131" height="6.82906" rx="1.10065" fill="#649DAD"/>
<rect x="71.3007" y="0.161133" width="2.20131" height="25.0399" rx="1.10065" fill="#649DAD"/>
<rect x="106.522" y="0.161133" width="2.20131" height="25.0399" rx="1.10065" fill="#649DAD"/>
<rect x="141.742" y="6.99023" width="2.20131" height="11.3818" rx="1.10065" fill="#649DAD"/>
<rect x="176.964" y="6.99023" width="2.20131" height="11.3818" rx="1.10065" fill="#649DAD"/>
<rect x="5.26117" y="6.99023" width="2.20131" height="11.3818" rx="1.10065" fill="#649DAD"/>
<rect x="40.4824" y="6.99023" width="2.20131" height="11.3818" rx="1.10065" fill="#649DAD"/>
<rect x="75.7028" y="9.26562" width="2.20131" height="6.82906" rx="1.10065" fill="#649DAD"/>
<rect x="110.924" y="2.43652" width="2.20131" height="20.4872" rx="1.10065" fill="#649DAD"/>
<rect x="146.145" y="0.161133" width="2.20131" height="25.0399" rx="1.10065" fill="#649DAD"/>
<rect x="181.366" y="9.26562" width="2.20131" height="6.82906" rx="1.10065" fill="#649DAD"/>
<rect x="9.664" y="9.26562" width="2.20131" height="6.82906" rx="1.10065" fill="#649DAD"/>
<rect x="44.8847" y="4.71387" width="2.20131" height="15.9345" rx="1.10065" fill="#649DAD"/>
<rect x="80.1061" y="9.26562" width="2.20131" height="6.82906" rx="1.10065" fill="#649DAD"/>
<rect x="115.327" y="9.26562" width="2.20131" height="6.82906" rx="1.10065" fill="#649DAD"/>
<rect x="150.548" y="2.43652" width="2.20131" height="20.4872" rx="1.10065" fill="#649DAD"/>
<rect x="185.769" y="9.26562" width="2.20131" height="6.82906" rx="1.10065" fill="#649DAD"/>
<rect x="14.0666" y="0.161133" width="2.20131" height="25.0399" rx="1.10065" fill="#649DAD"/>
<rect x="49.2875" y="9.26562" width="2.20131" height="6.82906" rx="1.10065" fill="#649DAD"/>
<rect x="84.5087" y="9.26562" width="2.20131" height="6.82906" rx="1.10065" fill="#649DAD"/>
<rect x="119.729" y="4.71387" width="2.20131" height="15.9345" rx="1.10065" fill="#649DAD"/>
<rect x="154.95" y="6.99023" width="2.20131" height="11.3818" rx="1.10065" fill="#649DAD"/>
<rect x="190.172" y="9.26562" width="2.20131" height="6.82906" rx="1.10065" fill="#649DAD"/>
<rect x="18.4692" y="2.43652" width="2.20131" height="20.4872" rx="1.10065" fill="#649DAD"/>
<rect x="53.6898" y="6.99023" width="2.20131" height="11.3818" rx="1.10065" fill="#649DAD"/>
<rect x="88.911" y="9.26562" width="2.20131" height="6.82906" rx="1.10065" fill="#649DAD"/>
<rect x="124.132" y="6.99023" width="2.20131" height="11.3818" rx="1.10065" fill="#649DAD"/>
<rect x="159.353" y="2.43652" width="2.20131" height="20.4872" rx="1.10065" fill="#649DAD"/>
<rect x="194.574" y="0.161133" width="2.20131" height="25.0399" rx="1.10065" fill="#649DAD"/>
</svg>
