<svg width="52" height="52" viewBox="0 0 52 52" fill="none" xmlns="http://www.w3.org/2000/svg">
<path d="M36.9723 14.3042C35.4087 15.8678 33.8515 17.4185 32.3267 18.9433C31.6676 18.5557 31.028 18.1098 30.3302 17.7868C27.6746 16.5591 24.9932 16.5656 22.3441 17.7803C19.863 18.9239 18.1508 20.8171 17.3173 23.4145C16.2706 26.6774 16.8133 29.7206 18.9455 32.415C20.4897 34.3727 22.5444 35.5099 25.019 35.8588C26.8669 36.1172 28.6761 35.9169 30.4012 35.2191C32.8306 34.2306 34.3684 32.4602 34.9693 29.8886C34.9758 29.8499 34.9758 29.8046 34.9822 29.7271C32.1134 29.7271 29.2576 29.7271 26.3824 29.7271C26.3824 27.6401 26.3824 25.5919 26.3824 23.5049C26.5245 23.4985 26.6602 23.4856 26.7959 23.4856C31.5319 23.4856 36.2745 23.492 41.0105 23.4726C41.3788 23.4726 41.4564 23.6342 41.5081 23.9249C41.7794 25.3529 41.8376 26.7872 41.6954 28.2346C41.5274 29.9015 41.1915 31.5233 40.5712 33.0869C39.3435 36.1948 37.3276 38.6371 34.4589 40.3558C31.0667 42.3911 27.3838 42.9726 23.52 42.3135C19.7984 41.6739 16.6776 39.8841 14.1836 37.0476C12.5812 35.2256 11.4699 33.1322 10.8173 30.7932C10.1647 28.4542 10.0549 26.0765 10.449 23.6923C10.9271 20.8235 12.116 18.2584 13.9962 16.0293C16.1995 13.419 18.952 11.6486 22.2601 10.8151C26.3113 9.79425 30.2203 10.2207 33.9291 12.2043C35.0275 12.7923 36.0419 13.4965 36.9723 14.3042Z" fill="#979797"/>
<rect x="1" y="1" width="50" height="50" rx="9" stroke="#979797" stroke-width="2"/>
</svg>
