<svg width="38" height="20" viewBox="0 0 38 20" fill="none" xmlns="http://www.w3.org/2000/svg">
<path d="M18.5714 4.28564C15.4285 4.28564 12.8571 6.85707 12.8571 9.99993C12.8571 13.1428 15.4285 15.7142 18.5714 15.7142C21.7143 15.7142 24.2857 13.1428 24.2857 9.99993C24.2857 6.85707 21.7143 4.28564 18.5714 4.28564ZM18.5714 14.2856C16.1428 14.2856 14.2857 12.4285 14.2857 9.99993C14.2857 7.57132 16.1428 5.71422 18.5714 5.71422C21 5.71422 22.8571 7.57132 22.8571 9.99993C22.8571 12.4285 21 14.2856 18.5714 14.2856Z" fill="#649DAD"/>
<path d="M18.5714 0C5.71429 0 0 10 0 10C0 10 5.71429 20 18.5714 20C31.4286 20 37.1429 10 37.1429 10C37.1429 10 31.4286 0 18.5714 0ZM18.5714 18.5714C7.14286 18.5714 1.71429 10 1.71429 10C1.71429 10 7.14286 1.42857 18.5714 1.42857C30 1.42857 35.4286 10 35.4286 10C35.4286 10 30 18.5714 18.5714 18.5714Z" fill="#649DAD"/>
</svg>
